<?xml version="1.0" standalone="no"?><!DOCTYPE svg PUBLIC "-//W3C//DTD SVG 1.1//EN" "http://www.w3.org/Graphics/SVG/1.1/DTD/svg11.dtd"><svg t="1678376339068" class="icon" viewBox="0 0 1024 1024" version="1.1" xmlns="http://www.w3.org/2000/svg" p-id="10969" xmlns:xlink="http://www.w3.org/1999/xlink" width="200" height="200"><path d="M512 938.666667C277.333333 938.666667 85.333333 746.666667 85.333333 512S277.333333 85.333333 512 85.333333s426.666667 192 426.666667 426.666667-192 426.666667-426.666667 426.666667z m0-797.866667c-204.8 0-371.2 166.4-371.2 371.2 0 204.8 166.4 371.2 371.2 371.2 204.8 0 371.2-166.4 371.2-371.2 0-204.8-166.4-371.2-371.2-371.2z" fill="#6A3906" p-id="10970"></path><path d="M512 512m-311.466667 0a311.466667 311.466667 0 1 0 622.933334 0 311.466667 311.466667 0 1 0-622.933334 0Z" fill="#F5CB2B" p-id="10971"></path><path d="M512 695.466667L328.533333 512 512 328.533333l183.466667 183.466667-183.466667 183.466667zM405.333333 512l106.666667 106.666667 106.666667-106.666667L512 405.333333 405.333333 512z" fill="#6A3906" p-id="10972"></path></svg>